<svg width="16" height="16" viewBox="0 0 16 16" fill="none" xmlns="http://www.w3.org/2000/svg">
<path d="M5.00004 5.782V2.5H4.75004C4.55113 2.5 4.36037 2.42098 4.21971 2.28033C4.07906 2.13968 4.00004 1.94891 4.00004 1.75C4.00004 1.55109 4.07906 1.36032 4.21971 1.21967C4.36037 1.07902 4.55113 1 4.75004 1H11.25C11.449 1 11.6397 1.07902 11.7804 1.21967C11.921 1.36032 12 1.55109 12 1.75C12 1.94891 11.921 2.13968 11.7804 2.28033C11.6397 2.42098 11.449 2.5 11.25 2.5H11V5.782L14.666 11.542C15.619 13.04 14.543 15 12.767 15H3.23304C1.45704 15 0.381044 13.04 1.33404 11.542L5.00004 5.782ZM2.60004 12.347C2.52779 12.4604 2.48735 12.5912 2.48297 12.7256C2.47859 12.86 2.51042 12.9931 2.57513 13.1109C2.63985 13.2288 2.73506 13.3271 2.85081 13.3956C2.96655 13.464 3.09857 13.5001 3.23304 13.5H12.767C12.9015 13.5001 13.0335 13.464 13.1493 13.3956C13.265 13.3271 13.3602 13.2288 13.425 13.1109C13.4897 12.9931 13.5215 12.86 13.5171 12.7256C13.5127 12.5912 13.4723 12.4604 13.4 12.347L12.225 10.5H3.77504L2.60004 12.347ZM9.50004 2.5H6.50004V6C6.50004 6.143 6.46004 6.283 6.38304 6.403L4.73004 9H11.27L9.61704 6.403C9.54029 6.28263 9.49968 6.14276 9.50004 6V2.5Z" fill="white"/>
</svg>
