<svg width="16" height="16" viewBox="0 0 16 16" fill="none" xmlns="http://www.w3.org/2000/svg">
<path d="M2.00005 5.49994C1.99998 4.91982 2.14411 4.34877 2.41948 3.83816C2.69485 3.32756 3.09282 2.8934 3.5776 2.57476C4.06238 2.25611 4.61877 2.06296 5.19671 2.01268C5.77466 1.9624 6.35604 2.05657 6.88856 2.28672C7.42108 2.51686 7.88805 2.87577 8.24745 3.33115C8.60686 3.78654 8.84744 4.32412 8.94755 4.89554C9.04766 5.46697 9.00416 6.05431 8.82096 6.60476C8.63777 7.1552 8.32062 7.65147 7.89805 8.04894C8.69486 8.4356 9.38668 9.0087 9.91484 9.71965C10.443 10.4306 10.7919 11.2584 10.9321 12.1329C10.9475 12.2303 10.9436 12.3296 10.9206 12.4255C10.8976 12.5213 10.856 12.6116 10.7981 12.6913C10.7402 12.771 10.6672 12.8386 10.5832 12.8901C10.4992 12.9416 10.4059 12.976 10.3086 12.9914C10.2112 13.0069 10.1118 13.003 10.016 12.98C9.92023 12.957 9.82989 12.9154 9.75017 12.8575C9.67045 12.7996 9.60292 12.7266 9.55142 12.6426C9.49993 12.5586 9.46548 12.4653 9.45005 12.3679C9.30006 11.4283 8.81998 10.5728 8.09602 9.95524C7.37206 9.33767 6.45164 8.99842 5.50005 8.99842C4.54847 8.99842 3.62805 9.33767 2.90408 9.95524C2.18012 10.5728 1.70004 11.4283 1.55005 12.3679C1.53456 12.4653 1.50005 12.5586 1.44849 12.6425C1.39694 12.7265 1.32935 12.7995 1.24958 12.8573C1.16981 12.9152 1.07944 12.9568 0.983603 12.9797C0.887771 13.0026 0.788362 13.0064 0.691052 12.9909C0.593743 12.9754 0.500438 12.9409 0.416466 12.8894C0.332494 12.8378 0.259499 12.7702 0.201648 12.6905C0.143797 12.6107 0.102223 12.5203 0.079301 12.4245C0.0563787 12.3287 0.0525564 12.2293 0.0680524 12.1319C0.208387 11.2578 0.557428 10.4303 1.08558 9.71971C1.61374 9.00911 2.30544 8.43634 3.10205 8.04994C2.75372 7.72287 2.4762 7.32782 2.28665 6.8892C2.09711 6.45059 1.99956 5.97776 2.00005 5.49994ZM11.0001 3.99994C11.5811 4.00035 12.1495 4.16941 12.6363 4.48659C13.1231 4.80378 13.5073 5.25545 13.7424 5.78679C13.9774 6.31813 14.0532 6.90628 13.9605 7.47984C13.8678 8.05341 13.6106 8.58773 13.2201 9.01794C13.8287 9.32013 14.3696 9.74298 14.8097 10.2608C15.2498 10.7786 15.5799 11.3805 15.7801 12.0299C15.8197 12.156 15.8253 12.2903 15.7962 12.4192C15.7672 12.5482 15.7045 12.6671 15.6146 12.764C15.5248 12.8609 15.4109 12.9323 15.2845 12.9709C15.1581 13.0095 15.0237 13.014 14.8951 12.9839C14.7665 12.954 14.6481 12.8907 14.5517 12.8005C14.4553 12.7103 14.3844 12.5963 14.3461 12.4699C14.1668 11.8902 13.8402 11.3668 13.3982 10.951C12.9561 10.5353 12.4137 10.2413 11.8241 10.0979C11.6603 10.0584 11.5146 9.9649 11.4105 9.83247C11.3064 9.70004 11.2498 9.53641 11.2501 9.36794V9.01594C11.25 8.87631 11.2889 8.73943 11.3624 8.6207C11.4358 8.50198 11.541 8.40613 11.6661 8.34394C11.9692 8.1937 12.2127 7.94537 12.3569 7.63929C12.5011 7.33321 12.5376 6.98737 12.4605 6.65793C12.3833 6.32849 12.1971 6.03481 11.9319 5.82459C11.6668 5.61437 11.3384 5.49996 11.0001 5.49994C10.8011 5.49994 10.6104 5.42093 10.4697 5.28027C10.3291 5.13962 10.2501 4.94886 10.2501 4.74994C10.2501 4.55103 10.3291 4.36027 10.4697 4.21961C10.6104 4.07896 10.8011 3.99994 11.0001 3.99994ZM5.50005 3.49994C5.23371 3.49392 4.96886 3.54117 4.72103 3.63891C4.4732 3.73666 4.2474 3.88293 4.05688 4.06915C3.86636 4.25536 3.71496 4.47776 3.61158 4.72329C3.50819 4.96882 3.4549 5.23252 3.45484 5.49893C3.45477 5.76534 3.50793 6.02907 3.61119 6.27465C3.71445 6.52023 3.86574 6.74271 4.05616 6.92902C4.24659 7.11533 4.47232 7.26171 4.7201 7.35958C4.96788 7.45745 5.23271 7.50483 5.49905 7.49894C6.02161 7.48739 6.51889 7.27172 6.88442 6.8981C7.24996 6.52449 7.45471 6.02262 7.45484 5.49993C7.45497 4.97724 7.25047 4.47527 6.88512 4.10147C6.51977 3.72768 6.02261 3.51176 5.50005 3.49994Z" fill="white"/>
</svg>
